<svg xmlns="http://www.w3.org/2000/svg" viewBox="0 0 32 32" width="20" height="20" fill="white">
  <path d="M16 0C7.163 0 0 7.163 0 16c0 2.822.738 5.469 2.031 7.773L0 32l8.469-2.016A15.93 15.93 0 0016 32c8.837 0 16-7.163 16-16S24.837 0 16 0zm0 29.333a13.273 13.273 0 01-6.781-1.854l-.487-.29-5.025 1.197 1.219-4.893-.317-.499A13.258 13.258 0 012.667 16C2.667 8.636 8.636 2.667 16 2.667S29.333 8.636 29.333 16 23.364 29.333 16 29.333zm7.271-9.778c-.4-.2-2.366-1.167-2.733-1.3-.366-.133-.633-.2-.9.2s-1.033 1.3-1.267 1.567c-.233.266-.466.3-.866.1-.4-.2-1.688-.622-3.215-1.982-1.188-1.06-1.99-2.369-2.223-2.769-.233-.4-.025-.616.175-.816.181-.18.4-.466.6-.7.2-.233.266-.4.4-.666.133-.267.066-.5-.033-.7-.1-.2-.9-2.167-1.233-2.967-.325-.78-.656-.675-.9-.687l-.766-.013c-.267 0-.7.1-1.067.5s-1.4 1.367-1.4 3.333 1.433 3.867 1.633 4.134c.2.266 2.82 4.3 6.832 6.032 4.013 1.733 4.013 1.155 4.747 1.082.733-.072 2.366-.967 2.7-1.9.333-.933.333-1.733.233-1.9-.1-.167-.366-.266-.766-.466z"/>
</svg>
